<svg width="1055" height="398" viewBox="0 0 1055 398" fill="none" xmlns="http://www.w3.org/2000/svg">
<path d="M0 2.00001C0 0.89544 0.895431 0 2 0H1053C1054.1 0 1055 0.895431 1055 2V396C1055 397.105 1054.1 398 1053 398H1.99999C0.895421 398 0 397.105 0 396V2.00001Z" fill="white"/>
<path d="M2 1H1053V-1H2V1ZM1054 2V396H1056V2H1054ZM1053 397H1.99999V399H1053V397ZM1 396V2.00001H-1V396H1ZM1.99999 397C1.44771 397 1 396.552 1 396H-1C-1 397.657 0.34313 399 1.99999 399V397ZM1054 396C1054 396.552 1053.55 397 1053 397V399C1054.66 399 1056 397.657 1056 396H1054ZM1053 1C1053.55 1 1054 1.44771 1054 2H1056C1056 0.343152 1054.66 -1 1053 -1V1ZM2 -1C0.34314 -1 -1 0.343161 -1 2.00001H1C1 1.44772 1.44772 1 2 1V-1Z" fill="black" fill-opacity="0.1"/>
<rect x="50" y="70" width="250" height="250" fill="#F087FF"/>
<path d="M111.855 208L116.15 181.818H118.707L114.411 208H111.855ZM99.9398 200.739L100.349 198.182H119.883L119.474 200.739H99.9398ZM102.65 208L106.945 181.818H109.502L105.207 208H102.65ZM101.474 191.636L101.883 189.08H121.417L121.008 191.636H101.474ZM125.208 208V181.818H140.906V184.631H128.378V193.477H139.73V196.29H128.378V208H125.208ZM154.416 208.358C152.49 208.358 150.849 207.834 149.494 206.786C148.139 205.729 147.104 204.199 146.388 202.196C145.672 200.185 145.314 197.756 145.314 194.909C145.314 192.08 145.672 189.663 146.388 187.661C147.112 185.649 148.152 184.115 149.507 183.058C150.871 181.993 152.507 181.46 154.416 181.46C156.325 181.46 157.957 181.993 159.312 183.058C160.676 184.115 161.716 185.649 162.432 187.661C163.156 189.663 163.518 192.08 163.518 194.909C163.518 197.756 163.16 200.185 162.444 202.196C161.729 204.199 160.693 205.729 159.338 206.786C157.983 207.834 156.342 208.358 154.416 208.358ZM154.416 205.545C156.325 205.545 157.808 204.625 158.865 202.784C159.922 200.943 160.45 198.318 160.45 194.909C160.45 192.642 160.207 190.712 159.721 189.118C159.244 187.524 158.554 186.31 157.65 185.474C156.756 184.639 155.677 184.222 154.416 184.222C152.524 184.222 151.045 185.155 149.98 187.021C148.915 188.879 148.382 191.509 148.382 194.909C148.382 197.176 148.621 199.102 149.098 200.688C149.575 202.273 150.261 203.479 151.156 204.305C152.059 205.132 153.146 205.545 154.416 205.545ZM176.763 208.358C175.007 208.358 173.456 208.047 172.109 207.425C170.771 206.794 169.727 205.929 168.977 204.83C168.227 203.722 167.856 202.46 167.865 201.045C167.856 199.937 168.074 198.915 168.517 197.977C168.96 197.031 169.565 196.243 170.332 195.612C171.108 194.973 171.973 194.568 172.927 194.398V194.244C171.675 193.92 170.677 193.217 169.936 192.135C169.194 191.044 168.828 189.804 168.836 188.415C168.828 187.085 169.165 185.896 169.846 184.848C170.528 183.8 171.466 182.973 172.659 182.368C173.861 181.763 175.229 181.46 176.763 181.46C178.28 181.46 179.635 181.763 180.828 182.368C182.021 182.973 182.959 183.8 183.64 184.848C184.331 185.896 184.68 187.085 184.689 188.415C184.68 189.804 184.301 191.044 183.551 192.135C182.809 193.217 181.825 193.92 180.598 194.244V194.398C181.544 194.568 182.396 194.973 183.155 195.612C183.913 196.243 184.518 197.031 184.97 197.977C185.422 198.915 185.652 199.937 185.66 201.045C185.652 202.46 185.268 203.722 184.51 204.83C183.76 205.929 182.716 206.794 181.378 207.425C180.048 208.047 178.51 208.358 176.763 208.358ZM176.763 205.545C177.947 205.545 178.97 205.354 179.831 204.97C180.692 204.587 181.356 204.045 181.825 203.347C182.294 202.648 182.532 201.83 182.541 200.892C182.532 199.903 182.277 199.03 181.774 198.271C181.271 197.513 180.585 196.916 179.716 196.482C178.855 196.047 177.871 195.83 176.763 195.83C175.646 195.83 174.649 196.047 173.771 196.482C172.902 196.916 172.216 197.513 171.713 198.271C171.219 199.03 170.976 199.903 170.984 200.892C170.976 201.83 171.202 202.648 171.662 203.347C172.131 204.045 172.8 204.587 173.669 204.97C174.538 205.354 175.569 205.545 176.763 205.545ZM176.763 193.119C177.7 193.119 178.531 192.932 179.256 192.557C179.988 192.182 180.564 191.658 180.981 190.984C181.399 190.311 181.612 189.523 181.621 188.619C181.612 187.733 181.403 186.962 180.994 186.305C180.585 185.641 180.018 185.129 179.294 184.771C178.569 184.405 177.726 184.222 176.763 184.222C175.782 184.222 174.926 184.405 174.193 184.771C173.46 185.129 172.893 185.641 172.493 186.305C172.092 186.962 171.896 187.733 171.905 188.619C171.896 189.523 172.096 190.311 172.506 190.984C172.923 191.658 173.498 192.182 174.231 192.557C174.964 192.932 175.808 193.119 176.763 193.119ZM191.378 208L203.088 184.835V184.631H189.588V181.818H206.361V184.784L194.702 208H191.378ZM211.586 208V181.818H227.285V184.631H214.757V193.477H226.109V196.29H214.757V208H211.586ZM232.715 208V181.818H248.414V184.631H235.886V193.477H247.238V196.29H235.886V208H232.715Z" fill="black"/>
<rect x="401" y="70" width="253" height="250" fill="#6E1FCE"/>
<path d="M463.898 208L468.193 181.818H470.75L466.454 208H463.898ZM451.983 200.739L452.392 198.182H471.926L471.517 200.739H451.983ZM454.693 208L458.988 181.818H461.545L457.25 208H454.693ZM453.517 191.636L453.926 189.08H473.46L473.051 191.636H453.517ZM485.483 208.358C484.41 208.341 483.336 208.136 482.262 207.744C481.188 207.352 480.208 206.692 479.322 205.763C478.435 204.825 477.724 203.56 477.187 201.966C476.65 200.364 476.381 198.352 476.381 195.932C476.381 193.614 476.599 191.56 477.033 189.77C477.468 187.972 478.099 186.459 478.925 185.232C479.752 183.996 480.749 183.058 481.917 182.419C483.093 181.78 484.418 181.46 485.893 181.46C487.358 181.46 488.662 181.754 489.805 182.342C490.955 182.922 491.893 183.732 492.617 184.771C493.341 185.811 493.81 187.009 494.023 188.364H490.904C490.614 187.187 490.052 186.212 489.216 185.436C488.381 184.661 487.273 184.273 485.893 184.273C483.864 184.273 482.266 185.155 481.099 186.919C479.939 188.683 479.356 191.159 479.347 194.347H479.552C480.029 193.622 480.596 193.004 481.252 192.493C481.917 191.973 482.65 191.572 483.451 191.291C484.252 191.01 485.1 190.869 485.995 190.869C487.495 190.869 488.867 191.244 490.111 191.994C491.356 192.736 492.353 193.763 493.103 195.075C493.853 196.379 494.228 197.875 494.228 199.562C494.228 201.182 493.866 202.665 493.141 204.011C492.417 205.349 491.398 206.415 490.086 207.207C488.782 207.991 487.248 208.375 485.483 208.358ZM485.483 205.545C486.557 205.545 487.52 205.277 488.373 204.74C489.233 204.203 489.911 203.483 490.405 202.58C490.908 201.676 491.16 200.67 491.16 199.562C491.16 198.48 490.917 197.496 490.431 196.609C489.954 195.714 489.293 195.003 488.449 194.474C487.614 193.946 486.66 193.682 485.586 193.682C484.776 193.682 484.022 193.844 483.323 194.168C482.624 194.483 482.01 194.918 481.482 195.472C480.962 196.026 480.553 196.661 480.255 197.376C479.956 198.084 479.807 198.83 479.807 199.614C479.807 200.653 480.05 201.625 480.536 202.528C481.03 203.432 481.704 204.161 482.556 204.714C483.417 205.268 484.393 205.545 485.483 205.545ZM499.715 208V181.818H515.517V184.631H502.886V193.477H514.698V196.29H502.886V205.188H515.721V208H499.715ZM529.975 181.818V208H526.805V185.142H526.651L520.259 189.386V186.165L526.805 181.818H529.975ZM537.965 208V181.818H553.664V184.631H541.136V193.477H552.488V196.29H541.136V208H537.965ZM580.162 190H576.992C576.805 189.088 576.476 188.287 576.008 187.597C575.547 186.906 574.985 186.327 574.32 185.858C573.664 185.381 572.935 185.023 572.134 184.784C571.333 184.545 570.498 184.426 569.628 184.426C568.043 184.426 566.607 184.827 565.32 185.628C564.042 186.429 563.023 187.609 562.265 189.169C561.515 190.729 561.14 192.642 561.14 194.909C561.14 197.176 561.515 199.089 562.265 200.649C563.023 202.209 564.042 203.389 565.32 204.19C566.607 204.991 568.043 205.392 569.628 205.392C570.498 205.392 571.333 205.273 572.134 205.034C572.935 204.795 573.664 204.442 574.32 203.973C574.985 203.496 575.547 202.912 576.008 202.222C576.476 201.523 576.805 200.722 576.992 199.818H580.162C579.924 201.156 579.489 202.354 578.858 203.411C578.228 204.467 577.444 205.366 576.506 206.108C575.569 206.841 574.516 207.399 573.349 207.783C572.189 208.166 570.949 208.358 569.628 208.358C567.395 208.358 565.41 207.812 563.671 206.722C561.932 205.631 560.564 204.08 559.567 202.068C558.57 200.057 558.072 197.67 558.072 194.909C558.072 192.148 558.57 189.761 559.567 187.75C560.564 185.739 561.932 184.188 563.671 183.097C565.41 182.006 567.395 181.46 569.628 181.46C570.949 181.46 572.189 181.652 573.349 182.036C574.516 182.419 575.569 182.982 576.506 183.723C577.444 184.456 578.228 185.351 578.858 186.408C579.489 187.456 579.924 188.653 580.162 190ZM585.286 208V181.818H601.087V184.631H588.456V193.477H600.269V196.29H588.456V205.188H601.291V208H585.286Z" fill="black"/>
<rect x="755" y="70" width="250" height="250" fill="#1B1622"/>
<path d="M819.702 198L823.998 171.818H826.555L822.259 198H819.702ZM807.787 190.739L808.197 188.182H827.731L827.322 190.739H807.787ZM810.498 198L814.793 171.818H817.35L813.055 198H810.498ZM809.322 181.636L809.731 179.08H829.265L828.856 181.636H809.322ZM841.8 171.818V198H838.629V175.142H838.476L832.084 179.386V176.165L838.629 171.818H841.8ZM849.79 198V171.818H858.943C860.767 171.818 862.271 172.134 863.456 172.764C864.64 173.386 865.523 174.226 866.102 175.283C866.682 176.331 866.971 177.494 866.971 178.773C866.971 179.898 866.771 180.827 866.371 181.56C865.979 182.293 865.459 182.872 864.811 183.298C864.172 183.724 863.477 184.04 862.727 184.244V184.5C863.528 184.551 864.334 184.832 865.143 185.344C865.953 185.855 866.631 186.588 867.176 187.543C867.721 188.497 867.994 189.665 867.994 191.045C867.994 192.358 867.696 193.538 867.099 194.587C866.503 195.635 865.561 196.466 864.274 197.08C862.987 197.693 861.312 198 859.25 198H849.79ZM852.96 195.188H859.25C861.321 195.188 862.791 194.787 863.66 193.986C864.538 193.176 864.977 192.196 864.977 191.045C864.977 190.159 864.751 189.341 864.3 188.591C863.848 187.832 863.204 187.227 862.369 186.776C861.534 186.315 860.545 186.085 859.403 186.085H852.96V195.188ZM852.96 183.324H858.841C859.795 183.324 860.656 183.136 861.423 182.761C862.199 182.386 862.812 181.858 863.264 181.176C863.724 180.494 863.954 179.693 863.954 178.773C863.954 177.622 863.554 176.646 862.753 175.845C861.952 175.036 860.682 174.631 858.943 174.631H852.96V183.324ZM881.948 171.818V198H878.778V175.142H878.624L872.232 179.386V176.165L878.778 171.818H881.948ZM898.171 198.358C897.097 198.341 896.023 198.136 894.949 197.744C893.876 197.352 892.895 196.692 892.009 195.763C891.123 194.825 890.411 193.56 889.874 191.966C889.337 190.364 889.069 188.352 889.069 185.932C889.069 183.614 889.286 181.56 889.721 179.77C890.155 177.972 890.786 176.459 891.613 175.232C892.439 173.996 893.437 173.058 894.604 172.419C895.78 171.78 897.106 171.46 898.58 171.46C900.046 171.46 901.35 171.754 902.492 172.342C903.643 172.922 904.58 173.732 905.305 174.771C906.029 175.811 906.498 177.009 906.711 178.364H903.591C903.302 177.187 902.739 176.212 901.904 175.436C901.069 174.661 899.961 174.273 898.58 174.273C896.552 174.273 894.954 175.155 893.786 176.919C892.627 178.683 892.043 181.159 892.035 184.347H892.239C892.716 183.622 893.283 183.004 893.939 182.493C894.604 181.973 895.337 181.572 896.138 181.291C896.939 181.01 897.787 180.869 898.682 180.869C900.182 180.869 901.555 181.244 902.799 181.994C904.043 182.736 905.04 183.763 905.79 185.075C906.54 186.379 906.915 187.875 906.915 189.562C906.915 191.182 906.553 192.665 905.829 194.011C905.104 195.349 904.086 196.415 902.773 197.207C901.469 197.991 899.935 198.375 898.171 198.358ZM898.171 195.545C899.245 195.545 900.208 195.277 901.06 194.74C901.921 194.203 902.599 193.483 903.093 192.58C903.596 191.676 903.847 190.67 903.847 189.562C903.847 188.48 903.604 187.496 903.118 186.609C902.641 185.714 901.981 185.003 901.137 184.474C900.302 183.946 899.347 183.682 898.273 183.682C897.464 183.682 896.709 183.844 896.01 184.168C895.312 184.483 894.698 184.918 894.17 185.472C893.65 186.026 893.241 186.661 892.942 187.376C892.644 188.084 892.495 188.83 892.495 189.614C892.495 190.653 892.738 191.625 893.224 192.528C893.718 193.432 894.391 194.161 895.243 194.714C896.104 195.268 897.08 195.545 898.171 195.545ZM911.943 198V195.699L920.585 186.239C921.599 185.131 922.434 184.168 923.09 183.349C923.747 182.523 924.232 181.747 924.548 181.023C924.872 180.29 925.034 179.523 925.034 178.722C925.034 177.801 924.812 177.004 924.369 176.331C923.934 175.658 923.338 175.138 922.579 174.771C921.82 174.405 920.968 174.222 920.022 174.222C919.017 174.222 918.139 174.43 917.389 174.848C916.647 175.257 916.072 175.832 915.663 176.574C915.262 177.315 915.062 178.185 915.062 179.182H912.045C912.045 177.648 912.399 176.301 913.106 175.142C913.813 173.983 914.776 173.08 915.995 172.432C917.222 171.784 918.599 171.46 920.124 171.46C921.659 171.46 923.018 171.784 924.203 172.432C925.387 173.08 926.316 173.953 926.99 175.053C927.663 176.152 927.999 177.375 927.999 178.722C927.999 179.685 927.825 180.626 927.475 181.547C927.134 182.459 926.538 183.477 925.686 184.602C924.842 185.719 923.67 187.082 922.17 188.693L916.289 194.983V195.188H928.46V198H911.943ZM933.74 198V195.699L942.382 186.239C943.396 185.131 944.231 184.168 944.887 183.349C945.544 182.523 946.029 181.747 946.345 181.023C946.669 180.29 946.83 179.523 946.83 178.722C946.83 177.801 946.609 177.004 946.166 176.331C945.731 175.658 945.134 175.138 944.376 174.771C943.617 174.405 942.765 174.222 941.819 174.222C940.813 174.222 939.936 174.43 939.186 174.848C938.444 175.257 937.869 175.832 937.46 176.574C937.059 177.315 936.859 178.185 936.859 179.182H933.842C933.842 177.648 934.195 176.301 934.903 175.142C935.61 173.983 936.573 173.08 937.792 172.432C939.019 171.784 940.396 171.46 941.921 171.46C943.455 171.46 944.815 171.784 945.999 172.432C947.184 173.08 948.113 173.953 948.786 175.053C949.46 176.152 949.796 177.375 949.796 178.722C949.796 179.685 949.622 180.626 949.272 181.547C948.931 182.459 948.335 183.477 947.482 184.602C946.639 185.719 945.467 187.082 943.967 188.693L938.086 194.983V195.188H950.257V198H933.74Z" fill="white"/>
<rect x="755" y="70" width="250" height="250" fill="#1B1622"/>
<path d="M819.702 198L823.998 171.818H826.555L822.259 198H819.702ZM807.787 190.739L808.197 188.182H827.731L827.322 190.739H807.787ZM810.498 198L814.793 171.818H817.35L813.055 198H810.498ZM809.322 181.636L809.731 179.08H829.265L828.856 181.636H809.322ZM841.8 171.818V198H838.629V175.142H838.476L832.084 179.386V176.165L838.629 171.818H841.8ZM849.79 198V171.818H858.943C860.767 171.818 862.271 172.134 863.456 172.764C864.64 173.386 865.523 174.226 866.102 175.283C866.682 176.331 866.971 177.494 866.971 178.773C866.971 179.898 866.771 180.827 866.371 181.56C865.979 182.293 865.459 182.872 864.811 183.298C864.172 183.724 863.477 184.04 862.727 184.244V184.5C863.528 184.551 864.334 184.832 865.143 185.344C865.953 185.855 866.631 186.588 867.176 187.543C867.721 188.497 867.994 189.665 867.994 191.045C867.994 192.358 867.696 193.538 867.099 194.587C866.503 195.635 865.561 196.466 864.274 197.08C862.987 197.693 861.312 198 859.25 198H849.79ZM852.96 195.188H859.25C861.321 195.188 862.791 194.787 863.66 193.986C864.538 193.176 864.977 192.196 864.977 191.045C864.977 190.159 864.751 189.341 864.3 188.591C863.848 187.832 863.204 187.227 862.369 186.776C861.534 186.315 860.545 186.085 859.403 186.085H852.96V195.188ZM852.96 183.324H858.841C859.795 183.324 860.656 183.136 861.423 182.761C862.199 182.386 862.812 181.858 863.264 181.176C863.724 180.494 863.954 179.693 863.954 178.773C863.954 177.622 863.554 176.646 862.753 175.845C861.952 175.036 860.682 174.631 858.943 174.631H852.96V183.324ZM881.948 171.818V198H878.778V175.142H878.624L872.232 179.386V176.165L878.778 171.818H881.948ZM898.171 198.358C897.097 198.341 896.023 198.136 894.949 197.744C893.876 197.352 892.895 196.692 892.009 195.763C891.123 194.825 890.411 193.56 889.874 191.966C889.337 190.364 889.069 188.352 889.069 185.932C889.069 183.614 889.286 181.56 889.721 179.77C890.155 177.972 890.786 176.459 891.613 175.232C892.439 173.996 893.437 173.058 894.604 172.419C895.78 171.78 897.106 171.46 898.58 171.46C900.046 171.46 901.35 171.754 902.492 172.342C903.643 172.922 904.58 173.732 905.305 174.771C906.029 175.811 906.498 177.009 906.711 178.364H903.591C903.302 177.187 902.739 176.212 901.904 175.436C901.069 174.661 899.961 174.273 898.58 174.273C896.552 174.273 894.954 175.155 893.786 176.919C892.627 178.683 892.043 181.159 892.035 184.347H892.239C892.716 183.622 893.283 183.004 893.939 182.493C894.604 181.973 895.337 181.572 896.138 181.291C896.939 181.01 897.787 180.869 898.682 180.869C900.182 180.869 901.555 181.244 902.799 181.994C904.043 182.736 905.04 183.763 905.79 185.075C906.54 186.379 906.915 187.875 906.915 189.562C906.915 191.182 906.553 192.665 905.829 194.011C905.104 195.349 904.086 196.415 902.773 197.207C901.469 197.991 899.935 198.375 898.171 198.358ZM898.171 195.545C899.245 195.545 900.208 195.277 901.06 194.74C901.921 194.203 902.599 193.483 903.093 192.58C903.596 191.676 903.847 190.67 903.847 189.562C903.847 188.48 903.604 187.496 903.118 186.609C902.641 185.714 901.981 185.003 901.137 184.474C900.302 183.946 899.347 183.682 898.273 183.682C897.464 183.682 896.709 183.844 896.01 184.168C895.312 184.483 894.698 184.918 894.17 185.472C893.65 186.026 893.241 186.661 892.942 187.376C892.644 188.084 892.495 188.83 892.495 189.614C892.495 190.653 892.738 191.625 893.224 192.528C893.718 193.432 894.391 194.161 895.243 194.714C896.104 195.268 897.08 195.545 898.171 195.545ZM911.943 198V195.699L920.585 186.239C921.599 185.131 922.434 184.168 923.09 183.349C923.747 182.523 924.232 181.747 924.548 181.023C924.872 180.29 925.034 179.523 925.034 178.722C925.034 177.801 924.812 177.004 924.369 176.331C923.934 175.658 923.338 175.138 922.579 174.771C921.82 174.405 920.968 174.222 920.022 174.222C919.017 174.222 918.139 174.43 917.389 174.848C916.647 175.257 916.072 175.832 915.663 176.574C915.262 177.315 915.062 178.185 915.062 179.182H912.045C912.045 177.648 912.399 176.301 913.106 175.142C913.813 173.983 914.776 173.08 915.995 172.432C917.222 171.784 918.599 171.46 920.124 171.46C921.659 171.46 923.018 171.784 924.203 172.432C925.387 173.08 926.316 173.953 926.99 175.053C927.663 176.152 927.999 177.375 927.999 178.722C927.999 179.685 927.825 180.626 927.475 181.547C927.134 182.459 926.538 183.477 925.686 184.602C924.842 185.719 923.67 187.082 922.17 188.693L916.289 194.983V195.188H928.46V198H911.943ZM933.74 198V195.699L942.382 186.239C943.396 185.131 944.231 184.168 944.887 183.349C945.544 182.523 946.029 181.747 946.345 181.023C946.669 180.29 946.83 179.523 946.83 178.722C946.83 177.801 946.609 177.004 946.166 176.331C945.731 175.658 945.134 175.138 944.376 174.771C943.617 174.405 942.765 174.222 941.819 174.222C940.813 174.222 939.936 174.43 939.186 174.848C938.444 175.257 937.869 175.832 937.46 176.574C937.059 177.315 936.859 178.185 936.859 179.182H933.842C933.842 177.648 934.195 176.301 934.903 175.142C935.61 173.983 936.573 173.08 937.792 172.432C939.019 171.784 940.396 171.46 941.921 171.46C943.455 171.46 944.815 171.784 945.999 172.432C947.184 173.08 948.113 173.953 948.786 175.053C949.46 176.152 949.796 177.375 949.796 178.722C949.796 179.685 949.622 180.626 949.272 181.547C948.931 182.459 948.335 183.477 947.482 184.602C946.639 185.719 945.467 187.082 943.967 188.693L938.086 194.983V195.188H950.257V198H933.74Z" fill="white"/>
</svg>
